<svg width="48" height="33" viewBox="0 0 48 33" fill="none" xmlns="http://www.w3.org/2000/svg">
<path d="M15.1389 32.9602C14.3297 32.9602 13.5992 32.4757 13.2843 31.7302L5.54389 13.4029C4.74754 11.5173 4.34937 10.5746 4.25431 9.96942C3.73792 6.68205 6.51684 3.81693 9.81845 4.23269C10.4262 4.30922 11.3807 4.67842 13.2897 5.41683L15.7705 6.3764C16.6032 6.69848 17.1521 7.49938 17.1521 8.39217V8.39217C17.1521 10.7234 20.3337 11.403 21.2861 9.27518L22.3257 6.95272C23.235 4.92121 26.1284 4.9484 26.9994 6.99666L27.9013 9.11757C28.7877 11.2022 31.8956 10.5689 31.8956 8.30358V8.30358C31.8956 7.4608 32.4041 6.70131 33.1834 6.38029L35.4792 5.43447C36.9008 4.84886 37.6115 4.55606 38.063 4.46134C41.555 3.7289 44.6684 6.78467 44.0013 10.2897C43.915 10.743 43.6355 11.4591 43.0766 12.8912L35.738 31.6941C35.4401 32.4576 34.7044 32.9602 33.8849 32.9602V32.9602C32.7862 32.9602 31.8956 32.0695 31.8956 30.9709V25.7356C31.8956 24.3853 31.8956 23.7102 31.7406 23.1023C31.4821 22.0882 30.9118 21.1807 30.1101 20.5078C29.6296 20.1045 29.0173 19.8097 27.7927 19.2202V19.2202C26.8499 18.7664 26.3786 18.5395 25.8962 18.4162C25.1164 18.2169 24.3 18.2089 23.5164 18.3927C23.0317 18.5064 22.559 18.7226 21.6135 19.155L21.3364 19.2817C20.1175 19.8392 19.508 20.1179 19.0237 20.5064C18.1742 21.1878 17.5703 22.128 17.3039 23.184C17.1521 23.7859 17.1521 24.4561 17.1521 25.7965V30.947C17.1521 32.0588 16.2508 32.9602 15.1389 32.9602V32.9602Z" fill="#18181B"/>
<path d="M19.0435 25.4134C19.0435 25.154 19.2324 24.9332 19.4886 24.8929L23.8924 24.2015C24.4823 24.1089 25.083 24.1089 25.6729 24.2015L30.0767 24.8929C30.3329 24.9332 30.5218 25.154 30.5218 25.4134V25.4134C30.5218 25.6728 30.3329 25.8936 30.0767 25.9338L25.6729 26.6253C25.083 26.7179 24.4823 26.7179 23.8924 26.6253L19.4886 25.9338C19.2324 25.8936 19.0435 25.6728 19.0435 25.4134V25.4134Z" fill="#18181B"/>
</svg>
