<svg width="48" height="33" viewBox="0 0 48 33" fill="none" xmlns="http://www.w3.org/2000/svg">
<path d="M15.1389 32.6838C14.3297 32.6838 13.5992 32.1993 13.2843 31.4539L5.54389 13.1265C4.74754 11.241 4.34937 10.2982 4.25431 9.69305C3.73792 6.40568 6.51684 3.54056 9.81845 3.95632C10.4262 4.03286 11.3807 4.40206 13.2897 5.14046L15.7705 6.10004C16.6032 6.42211 17.1521 7.22302 17.1521 8.1158V8.1158C17.1521 10.447 20.3337 11.1266 21.2861 8.99881L22.3257 6.67636C23.235 4.64484 26.1284 4.67204 26.9994 6.72029L27.9013 8.8412C28.7877 10.9258 31.8956 10.2925 31.8956 8.02722V8.02722C31.8956 7.18444 32.4041 6.42494 33.1834 6.10392L35.4792 5.1581C36.9008 4.57249 37.6115 4.27969 38.063 4.18498C41.555 3.45253 44.6684 6.5083 44.0013 10.0134C43.915 10.4666 43.6355 11.1827 43.0766 12.6149L35.738 31.4178C35.4401 32.1812 34.7044 32.6838 33.8849 32.6838V32.6838C32.7862 32.6838 31.8956 31.7932 31.8956 30.6945V25.4592C31.8956 24.109 31.8956 23.4338 31.7406 22.826C31.4821 21.8118 30.9118 20.9043 30.1101 20.2315C29.6296 19.8281 29.0173 19.5334 27.7927 18.9438V18.9438C26.8499 18.49 26.3786 18.2631 25.8962 18.1398C25.1164 17.9406 24.3 17.9325 23.5164 18.1164C23.0317 18.2301 22.559 18.4463 21.6135 18.8786L21.3364 19.0054C20.1175 19.5628 19.508 19.8416 19.0237 20.23C18.1742 20.9114 17.5703 21.8516 17.3039 22.9076C17.1521 23.5096 17.1521 24.1797 17.1521 25.5201V30.6706C17.1521 31.7825 16.2508 32.6838 15.1389 32.6838V32.6838Z" fill="white"/>
<path d="M19.0435 25.137C19.0435 24.8776 19.2324 24.6568 19.4886 24.6166L23.8924 23.9251C24.4823 23.8325 25.083 23.8325 25.6729 23.9251L30.0767 24.6166C30.3329 24.6568 30.5218 24.8776 30.5218 25.137V25.137C30.5218 25.3964 30.3329 25.6172 30.0767 25.6575L25.6729 26.3489C25.083 26.4416 24.4823 26.4416 23.8924 26.3489L19.4886 25.6575C19.2324 25.6172 19.0435 25.3964 19.0435 25.137V25.137Z" fill="white"/>
</svg>
